P3 10 10 100
5 0 95	10 0 90	13 0 87	15 0 85	16 0 84	17 0 83	18 0 82	22 0 78	30 0 70	50 0 50	
10 0 90	18 0 82	24 0 76	28 0 72	30 0 70	31 0 69	34 0 66	39 0 61	50 0 50	69 0 31	
13 0 87	24 0 76	32 0 68	37 0 63	39 0 61	41 0 59	44 0 56	50 0 50	60 0 40	77 0 23	
15 0 85	28 0 72	37 0 63	42 0 58	45 0 55	47 0 53	50 0 50	55 0 45	65 0 35	81 0 19	
16 0 84	30 0 70	39 0 61	45 0 55	48 0 52	50 0 50	52 0 48	58 0 42	68 0 32	82 0 18	
17 0 83	31 0 69	41 0 59	47 0 53	50 0 50	51 0 49	54 0 46	60 0 40	69 0 31	83 0 17	
18 0 82	34 0 66	44 0 56	50 0 50	52 0 48	54 0 46	57 0 43	62 0 38	71 0 29	84 0 16	
22 0 78	39 0 61	50 0 50	55 0 45	58 0 42	60 0 40	62 0 38	67 0 33	75 0 25	86 0 14	
30 0 70	50 0 50	60 0 40	65 0 35	68 0 32	69 0 31	71 0 29	75 0 25	81 0 19	89 0 11	
50 0 50	69 0 31	77 0 23	81 0 19	82 0 18	83 0 17	84 0 16	86 0 14	89 0 11	94 0 6	
